<?xml version="1.0" encoding="UTF-8"?>
<!DOCTYPE svg PUBLIC "-//W3C//DTD SVG 1.1//EN" "http://www.w3.org/Graphics/SVG/1.1/DTD/svg11.dtd">
<svg xmlns="http://www.w3.org/2000/svg" version="1.1" width="300px" height="300px" style="shape-rendering:geometricPrecision; text-rendering:geometricPrecision; image-rendering:optimizeQuality; fill-rule:evenodd; clip-rule:evenodd" xmlns:xlink="http://www.w3.org/1999/xlink">
<g><path style="opacity:0.964" fill="#003e53" d="M -0.5,-0.5 C 99.5,-0.5 199.5,-0.5 299.5,-0.5C 299.5,99.5 299.5,199.5 299.5,299.5C 199.5,299.5 99.5,299.5 -0.5,299.5C -0.5,199.5 -0.5,99.5 -0.5,-0.5 Z M 6.5,6.5 C 101.833,6.5 197.167,6.5 292.5,6.5C 292.5,101.833 292.5,197.167 292.5,292.5C 197.167,292.5 101.833,292.5 6.5,292.5C 6.5,197.167 6.5,101.833 6.5,6.5 Z"/></g>
<g><path style="opacity:0.994" fill="#013d53" d="M 11.5,10.5 C 103.737,10.1681 195.904,10.5015 288,11.5C 288.5,103.833 288.667,196.166 288.5,288.5C 195.929,288.832 103.429,288.499 11,287.5C 10.1695,195.097 10.3361,102.763 11.5,10.5 Z"/></g>
<g><path style="opacity:1" fill="#3daada" d="M 149.5,57.5 C 150.833,57.5 152.167,57.5 153.5,57.5C 153.833,60.8333 154.167,64.1667 154.5,67.5C 152.833,67.5 151.167,67.5 149.5,67.5C 149.5,64.1667 149.5,60.8333 149.5,57.5 Z"/></g>
<g><path style="opacity:1" fill="#54b3dd" d="M 148.5,70.5 C 150.833,70.5 153.167,70.5 155.5,70.5C 155.54,75.1925 155.873,79.8592 156.5,84.5C 153.5,84.5 150.5,84.5 147.5,84.5C 147.669,79.8189 148.002,75.1522 148.5,70.5 Z"/></g>
<g><path style="opacity:1" fill="#55a9cd" d="M 214.5,95.5 C 213.508,95.3284 212.842,95.6618 212.5,96.5C 203.699,86.8603 195.032,77.0269 186.5,67C 187.332,66.3123 187.998,66.479 188.5,67.5C 196.821,77.1544 205.488,86.4878 214.5,95.5 Z"/></g>
<g><path style="opacity:1" fill="#66b6d9" d="M 84.5,103.5 C 84.6716,102.508 84.3382,101.842 83.5,101.5C 93.1274,90.7034 102.961,80.0367 113,69.5C 113.667,70.1667 113.667,70.8333 113,71.5C 103.248,82.051 93.7482,92.7177 84.5,103.5 Z"/></g>
<g><path style="opacity:1" fill="#7ac7e8" d="M 146.5,87.5 C 149.833,87.5 153.167,87.5 156.5,87.5C 157.298,94.1501 157.965,100.817 158.5,107.5C 154.167,107.5 149.833,107.5 145.5,107.5C 146.054,100.847 146.388,94.1802 146.5,87.5 Z"/></g>
<g><path style="opacity:1" fill="#8bc9e3" d="M 214.5,95.5 C 220.5,101.833 226.5,108.167 232.5,114.5C 230.973,114.427 229.973,115.094 229.5,116.5C 223.843,109.873 218.177,103.207 212.5,96.5C 212.842,95.6618 213.508,95.3284 214.5,95.5 Z"/></g>
<g><path style="opacity:1" fill="#4d8ea8" d="M 158.5,110.5 C 153.52,109.985 148.854,110.652 144.5,112.5C 144.5,111.5 144.5,110.5 144.5,109.5C 149.363,109.181 154.03,109.514 158.5,110.5 Z"/></g>
<g><path style="opacity:1" fill="#b5dbec" d="M 83.5,101.5 C 84.3382,101.842 84.6716,102.508 84.5,103.5C 73.4901,116.207 62.4901,128.874 51.5,141.5C 51.7947,139.265 51.4614,137.265 50.5,135.5C 61.5088,124.124 72.5088,112.791 83.5,101.5 Z"/></g>
<g><path style="opacity:1" fill="#a4daf2" d="M 158.5,110.5 C 159.551,115.646 160.218,120.979 160.5,126.5C 160.5,128.5 160.5,130.5 160.5,132.5C 154.833,132.5 149.167,132.5 143.5,132.5C 143.5,130.167 143.5,127.833 143.5,125.5C 143.927,121.176 144.261,116.842 144.5,112.5C 148.854,110.652 153.52,109.985 158.5,110.5 Z"/></g>
<g><path style="opacity:1" fill="#b5dced" d="M 232.5,114.5 C 237.833,120.167 243.167,125.833 248.5,131.5C 247.167,132.167 246.167,133.167 245.5,134.5C 239.824,128.823 234.491,122.823 229.5,116.5C 229.973,115.094 230.973,114.427 232.5,114.5 Z"/></g>
<g><path style="opacity:1" fill="#6b9fb3" d="M 143.5,125.5 C 143.5,127.833 143.5,130.167 143.5,132.5C 149.167,132.5 154.833,132.5 160.5,132.5C 160.5,130.5 160.5,128.5 160.5,126.5C 161.468,128.607 161.802,130.941 161.5,133.5C 155.167,133.5 148.833,133.5 142.5,133.5C 142.194,130.615 142.527,127.948 143.5,125.5 Z"/></g>
<g><path style="opacity:1" fill="#9dc9db" d="M 162.5,144.5 C 161.532,142.393 161.198,140.059 161.5,137.5C 155.167,137.5 148.833,137.5 142.5,137.5C 142.802,140.059 142.468,142.393 141.5,144.5C 141.223,141.552 141.556,138.719 142.5,136C 148.833,135.333 155.167,135.333 161.5,136C 162.444,138.719 162.777,141.552 162.5,144.5 Z"/></g>
<g><path style="opacity:1" fill="#e4f1f7" d="M 50.5,135.5 C 51.4614,137.265 51.7947,139.265 51.5,141.5C 49.998,143.175 48.6647,145.008 47.5,147C 44.8333,147.667 42.1667,147.667 39.5,147C 43.3705,143.298 47.0371,139.464 50.5,135.5 Z"/></g>
<g><path style="opacity:1" fill="#d5eaf2" d="M 248.5,131.5 C 253.297,136.798 258.297,141.965 263.5,147C 260.833,147.667 258.167,147.667 255.5,147C 251.953,142.959 248.62,138.792 245.5,134.5C 246.167,133.167 247.167,132.167 248.5,131.5 Z"/></g>
<g><path style="opacity:1" fill="#c4e7f7" d="M 162.5,144.5 C 162.5,144.833 162.5,145.167 162.5,145.5C 155.913,147.461 148.913,148.128 141.5,147.5C 141.5,146.5 141.5,145.5 141.5,144.5C 142.468,142.393 142.802,140.059 142.5,137.5C 148.833,137.5 155.167,137.5 161.5,137.5C 161.198,140.059 161.532,142.393 162.5,144.5 Z"/></g>
<g><path style="opacity:1" fill="#3d7184" d="M 141.5,144.5 C 141.5,145.5 141.5,146.5 141.5,147.5C 148.913,148.128 155.913,147.461 162.5,145.5C 163.404,146.209 163.737,147.209 163.5,148.5C 155.833,148.5 148.167,148.5 140.5,148.5C 140.232,146.901 140.566,145.568 141.5,144.5 Z"/></g>
<g><path style="opacity:1" fill="#6b7172" d="M 48.5,177.5 C 61.1667,177.5 73.8333,177.5 86.5,177.5C 86.5,181.5 86.5,185.5 86.5,189.5C 78.8333,189.5 71.1667,189.5 63.5,189.5C 63.5,192.167 63.5,194.833 63.5,197.5C 70.8333,197.5 78.1667,197.5 85.5,197.5C 85.5,201.5 85.5,205.5 85.5,209.5C 78.1667,209.5 70.8333,209.5 63.5,209.5C 63.5,212.833 63.5,216.167 63.5,219.5C 71.5,219.5 79.5,219.5 87.5,219.5C 87.5,223.5 87.5,227.5 87.5,231.5C 74.5,231.5 61.5,231.5 48.5,231.5C 48.5,213.5 48.5,195.5 48.5,177.5 Z"/></g>
<g><path style="opacity:1" fill="#afafaf" d="M 83.5,199.5 C 76.1667,199.5 68.8333,199.5 61.5,199.5C 61.5,195.5 61.5,191.5 61.5,187.5C 69.1667,187.5 76.8333,187.5 84.5,187.5C 84.5,184.833 84.5,182.167 84.5,179.5C 73.1667,179.5 61.8333,179.5 50.5,179.5C 50.5,196.167 50.5,212.833 50.5,229.5C 62.1667,229.5 73.8333,229.5 85.5,229.5C 85.5,226.833 85.5,224.167 85.5,221.5C 86.4767,224.287 86.81,227.287 86.5,230.5C 74.1667,230.5 61.8333,230.5 49.5,230.5C 49.5,213.167 49.5,195.833 49.5,178.5C 61.5,178.5 73.5,178.5 85.5,178.5C 85.5,181.833 85.5,185.167 85.5,188.5C 77.8333,188.5 70.1667,188.5 62.5,188.5C 62.5,191.833 62.5,195.167 62.5,198.5C 69.6866,198.175 76.6866,198.509 83.5,199.5 Z"/></g>
<g><path style="opacity:1" fill="#646d71" d="M 112.5,189.5 C 119.833,188.833 127.167,188.167 134.5,187.5C 134.5,184.5 134.5,181.5 134.5,178.5C 122.833,178.5 111.167,178.5 99.5,178.5C 99.5,195.833 99.5,213.167 99.5,230.5C 103.5,230.5 107.5,230.5 111.5,230.5C 111.5,223.167 111.5,215.833 111.5,208.5C 119.167,208.5 126.833,208.5 134.5,208.5C 127.352,209.492 120.019,209.825 112.5,209.5C 112.5,216.833 112.5,224.167 112.5,231.5C 107.5,231.5 102.5,231.5 97.5,231.5C 97.5,213.5 97.5,195.5 97.5,177.5C 110.167,177.5 122.833,177.5 135.5,177.5C 135.5,181.5 135.5,185.5 135.5,189.5C 127.833,189.5 120.167,189.5 112.5,189.5 Z"/></g>
<g><path style="opacity:1" fill="#737575" d="M 147.5,177.5 C 152.844,177.334 158.177,177.501 163.5,178C 168.952,189.072 174.785,199.906 181,210.5C 181.5,199.505 181.667,188.505 181.5,177.5C 186.167,177.5 190.833,177.5 195.5,177.5C 195.5,195.5 195.5,213.5 195.5,231.5C 189.794,231.829 184.128,231.495 178.5,230.5C 173.509,219.849 168.009,209.516 162,199.5C 161.5,210.161 161.333,220.828 161.5,231.5C 156.833,231.5 152.167,231.5 147.5,231.5C 147.5,213.5 147.5,195.5 147.5,177.5 Z"/></g>
<g><path style="opacity:1" fill="#6b7072" d="M 233.5,221.5 C 226.274,223.878 222.274,221.212 221.5,213.5C 221.5,201.833 221.5,190.167 221.5,178.5C 217.167,178.5 212.833,178.5 208.5,178.5C 208.5,190.833 208.5,203.167 208.5,215.5C 207.505,203.011 207.171,190.344 207.5,177.5C 212.5,177.5 217.5,177.5 222.5,177.5C 222.333,190.504 222.5,203.504 223,216.5C 225.22,220.692 228.72,222.359 233.5,221.5 Z"/></g>
<g><path style="opacity:1" fill="#797b7c" d="M 208.5,215.5 C 208.833,215.5 209.167,215.5 209.5,215.5C 211.619,226.771 218.453,231.771 230,230.5C 241.987,232.163 249.32,227.163 252,215.5C 252.5,203.505 252.667,191.505 252.5,179.5C 248.5,179.5 244.5,179.5 240.5,179.5C 240.667,191.505 240.5,203.505 240,215.5C 239.236,219.099 237.07,221.099 233.5,221.5C 236.542,219.776 238.375,217.109 239,213.5C 239.5,201.505 239.667,189.505 239.5,177.5C 244.167,177.5 248.833,177.5 253.5,177.5C 253.667,190.837 253.5,204.171 253,217.5C 250.64,225.858 245.14,230.691 236.5,232C 226.43,234.523 217.93,232.023 211,224.5C 209.451,221.688 208.618,218.688 208.5,215.5 Z"/></g>
<g><path style="opacity:1" fill="#fefefe" d="M 83.5,199.5 C 83.5,202.167 83.5,204.833 83.5,207.5C 76.5,207.5 69.5,207.5 62.5,207.5C 62.5,212.167 62.5,216.833 62.5,221.5C 70.1667,221.5 77.8333,221.5 85.5,221.5C 85.5,224.167 85.5,226.833 85.5,229.5C 73.8333,229.5 62.1667,229.5 50.5,229.5C 50.5,212.833 50.5,196.167 50.5,179.5C 61.8333,179.5 73.1667,179.5 84.5,179.5C 84.5,182.167 84.5,184.833 84.5,187.5C 76.8333,187.5 69.1667,187.5 61.5,187.5C 61.5,191.5 61.5,195.5 61.5,199.5C 68.8333,199.5 76.1667,199.5 83.5,199.5 Z"/></g>
<g><path style="opacity:1" fill="#fafafa" d="M 134.5,187.5 C 126.833,187.5 119.167,187.5 111.5,187.5C 111.5,191.5 111.5,195.5 111.5,199.5C 118.5,199.5 125.5,199.5 132.5,199.5C 132.5,202.167 132.5,204.833 132.5,207.5C 125.313,207.175 118.313,207.509 111.5,208.5C 111.5,215.833 111.5,223.167 111.5,230.5C 107.5,230.5 103.5,230.5 99.5,230.5C 99.5,213.167 99.5,195.833 99.5,178.5C 111.167,178.5 122.833,178.5 134.5,178.5C 134.5,181.5 134.5,184.5 134.5,187.5 Z"/></g>
<g><path style="opacity:1" fill="#fdfdfd" d="M 182.5,179.5 C 186.167,179.5 189.833,179.5 193.5,179.5C 193.5,196.167 193.5,212.833 193.5,229.5C 189.167,229.5 184.833,229.5 180.5,229.5C 174.086,217.671 167.42,206.004 160.5,194.5C 159.505,205.988 159.172,217.655 159.5,229.5C 155.833,229.5 152.167,229.5 148.5,229.5C 148.5,212.833 148.5,196.167 148.5,179.5C 153.43,179.197 158.263,179.531 163,180.5C 168.913,191.993 175.079,203.327 181.5,214.5C 182.499,202.852 182.832,191.186 182.5,179.5 Z"/></g>
<g><path style="opacity:1" fill="#b9b9b9" d="M 182.5,179.5 C 186.298,178.517 190.298,178.183 194.5,178.5C 194.5,195.833 194.5,213.167 194.5,230.5C 189.637,230.819 184.97,230.486 180.5,229.5C 184.833,229.5 189.167,229.5 193.5,229.5C 193.5,212.833 193.5,196.167 193.5,179.5C 189.833,179.5 186.167,179.5 182.5,179.5 Z"/></g>
<g><path style="opacity:1" fill="#fdfdfd" d="M 221.5,213.5 C 222.274,221.212 226.274,223.878 233.5,221.5C 237.07,221.099 239.236,219.099 240,215.5C 240.5,203.505 240.667,191.505 240.5,179.5C 244.5,179.5 248.5,179.5 252.5,179.5C 252.667,191.505 252.5,203.505 252,215.5C 249.32,227.163 241.987,232.163 230,230.5C 218.453,231.771 211.619,226.771 209.5,215.5C 209.5,203.5 209.5,191.5 209.5,179.5C 213.167,179.5 216.833,179.5 220.5,179.5C 220.172,191.012 220.505,202.346 221.5,213.5 Z"/></g>
<g><path style="opacity:1" fill="#b1b1b1" d="M 221.5,213.5 C 220.505,202.346 220.172,191.012 220.5,179.5C 216.833,179.5 213.167,179.5 209.5,179.5C 209.5,191.5 209.5,203.5 209.5,215.5C 209.167,215.5 208.833,215.5 208.5,215.5C 208.5,203.167 208.5,190.833 208.5,178.5C 212.833,178.5 217.167,178.5 221.5,178.5C 221.5,190.167 221.5,201.833 221.5,213.5 Z"/></g>
<g><path style="opacity:1" fill="#a6a6a6" d="M 160.5,194.5 C 160.5,206.5 160.5,218.5 160.5,230.5C 156.298,230.817 152.298,230.483 148.5,229.5C 152.167,229.5 155.833,229.5 159.5,229.5C 159.172,217.655 159.505,205.988 160.5,194.5 Z"/></g>
<g><path style="opacity:1" fill="#898b8b" d="M 134.5,187.5 C 127.167,188.167 119.833,188.833 112.5,189.5C 112.5,192.167 112.5,194.833 112.5,197.5C 119.833,197.5 127.167,197.5 134.5,197.5C 134.5,201.167 134.5,204.833 134.5,208.5C 126.833,208.5 119.167,208.5 111.5,208.5C 118.313,207.509 125.313,207.175 132.5,207.5C 132.5,204.833 132.5,202.167 132.5,199.5C 125.5,199.5 118.5,199.5 111.5,199.5C 111.5,195.5 111.5,191.5 111.5,187.5C 119.167,187.5 126.833,187.5 134.5,187.5 Z"/></g>
</svg>
